<svg xmlns="http://www.w3.org/2000/svg" width="200" height="200" viewBox="0 0 200 200">
  <defs>
    <linearGradient id="iconGrad3" x1="0%" y1="0%" x2="100%" y2="100%">
      <stop offset="0%" style="stop-color:#10B981;stop-opacity:1" />
      <stop offset="100%" style="stop-color:#059669;stop-opacity:1" />
    </linearGradient>
    <linearGradient id="ringGrad3" x1="0%" y1="0%" x2="100%" y2="100%">
      <stop offset="0%" style="stop-color:#34D399;stop-opacity:1" />
      <stop offset="100%" style="stop-color:#10B981;stop-opacity:1" />
    </linearGradient>
  </defs>

  <circle cx="100" cy="100" r="95" fill="url(#iconGrad3)" />
  <circle cx="100" cy="100" r="82" fill="none" stroke="url(#ringGrad3)" stroke-width="6" opacity="0.3" />
  <circle cx="100" cy="100" r="72" fill="none" stroke="white" stroke-width="2" opacity="0.2" />

  <g transform="translate(100, 100) scale(1.4)">
    <path d="M0 -35 C10 -25 18 -15 20 0 C22 15 15 30 0 35 C-15 30 -22 15 -20 0 C-18 -15 -10 -25 0 -35Z" fill="white" opacity="0.95" />
    <path d="M0 -20 C5 -15 8 -8 10 0 C12 8 8 18 0 22 C-8 18 -12 8 -10 0 C-8 -8 -5 -15 0 -20Z" fill="#10B981" opacity="0.6" />
    <circle cx="0" cy="5" r="4" fill="white" opacity="0.8" />
  </g>

  <g stroke="white" stroke-width="3" opacity="0.4">
    <line x1="100" y1="18" x2="100" y2="30" />
    <line x1="182" y1="100" x2="170" y2="100" />
    <line x1="100" y1="182" x2="100" y2="170" />
    <line x1="18" y1="100" x2="30" y2="100" />
  </g>
</svg>
