<svg xmlns="http://www.w3.org/2000/svg" width="600" height="200" viewBox="0 0 600 200">
  <defs>
    <linearGradient id="iconGradient2" x1="0%" y1="0%" x2="100%" y2="100%">
      <stop offset="0%" style="stop-color:#10B981;stop-opacity:1" />
      <stop offset="100%" style="stop-color:#059669;stop-opacity:1" />
    </linearGradient>
    <linearGradient id="ringGradient2" x1="0%" y1="0%" x2="100%" y2="100%">
      <stop offset="0%" style="stop-color:#34D399;stop-opacity:1" />
      <stop offset="100%" style="stop-color:#10B981;stop-opacity:1" />
    </linearGradient>
  </defs>

  <circle cx="100" cy="100" r="85" fill="url(#iconGradient2)" />
  <circle cx="100" cy="100" r="75" fill="none" stroke="url(#ringGradient2)" stroke-width="6" opacity="0.3" />
  <circle cx="100" cy="100" r="65" fill="none" stroke="white" stroke-width="2" opacity="0.2" />

  <g transform="translate(100, 100) scale(1.2)">
    <path d="M0 -35 C10 -25 18 -15 20 0 C22 15 15 30 0 35 C-15 30 -22 15 -20 0 C-18 -15 -10 -25 0 -35Z" fill="white" opacity="0.95" />
    <path d="M0 -20 C5 -15 8 -8 10 0 C12 8 8 18 0 22 C-8 18 -12 8 -10 0 C-8 -8 -5 -15 0 -20Z" fill="#10B981" opacity="0.6" />
    <circle cx="0" cy="5" r="4" fill="white" opacity="0.8" />
  </g>

  <g stroke="white" stroke-width="3" opacity="0.4">
    <line x1="100" y1="25" x2="100" y2="35" />
    <line x1="175" y1="100" x2="165" y2="100" />
    <line x1="100" y1="175" x2="100" y2="165" />
    <line x1="25" y1="100" x2="35" y2="100" />
  </g>

  <text x="210" y="85" font-family="system-ui, -apple-system, 'Segoe UI', sans-serif" font-size="56" font-weight="700" fill="#FFFFFF" letter-spacing="-1">Fast</text>
  <text x="310" y="85" font-family="system-ui, -apple-system, 'Segoe UI', sans-serif" font-size="56" font-weight="700" fill="#10B981" letter-spacing="-1">Track</text>
  <text x="212" y="120" font-family="system-ui, -apple-system, 'Segoe UI', sans-serif" font-size="18" fill="#94A3B8" letter-spacing="4">FAST · FUEL · FLOURISH</text>
</svg>
